<svg id="Layer_1" data-name="Layer 1" xmlns="http://www.w3.org/2000/svg" viewBox="0 0 536.01 94.44"><defs><style>.cls-1{font-size:87.89px;font-family:FuturaBT-Bold, Futura Md BT;font-weight:700;}.cls-1,.cls-3{fill:#fff;}.cls-2{letter-spacing:-0.02em;}</style></defs><title>Website_logo_White</title><text class="cls-1" transform="matrix(0.98, 0, -0.19, 0.98, 81.66, 74)">Binary<tspan class="cls-2" x="288.46" y="0">P</tspan><tspan x="342.62" y="0">ay</tspan></text><path class="cls-3" d="M66.37,289.05c-11.93,0-23.46,9.68-25.76,21.61s5.51,21.6,17.44,21.6,23.47-9.67,25.76-21.6S78.3,289.05,66.37,289.05Zm-6.31,32.79c-6.18,0-10.22-5-9-11.18s7.16-11.19,13.34-11.19,10.22,5,9,11.19A14.21,14.21,0,0,1,60.06,321.84Z" transform="translate(-25 -244.85)"/><polygon class="cls-3" points="11.19 87.55 0 87.55 11.81 26.21 23 26.21 11.19 87.55"/><path class="cls-3" d="M69.68,288.23c11.94,0,23.47-9.67,25.77-21.6S89.94,245,78,245s-23.47,9.67-25.77,21.6S57.75,288.23,69.68,288.23ZM76,255.45c6.18,0,10.22,5,9,11.18s-7.16,11.19-13.34,11.19-10.22-5-9-11.19A14.2,14.2,0,0,1,76,255.45Z" transform="translate(-25 -244.85)"/><polygon class="cls-3" points="74.88 0.03 86.07 0.03 74.25 61.37 63.07 61.37 74.88 0.03"/></svg>