<svg id="Layer_1" data-name="Layer 1" xmlns="http://www.w3.org/2000/svg" viewBox="0 0 967.84 170.5"><defs><style>.cls-1{font-size:158.67px;font-family:FuturaBT-Bold, Futura Md BT;font-weight:700;}.cls-1,.cls-4{fill:#123d58;}.cls-2,.cls-3{fill:#f0b227;}.cls-2{letter-spacing:-0.02em;}</style></defs><title>BP LOGO</title><text class="cls-1" transform="matrix(0.98, 0, -0.19, 0.98, 147.56, 133.6)">Binary<tspan class="cls-2" x="520.79" y="0">P</tspan><tspan class="cls-3" x="618.56" y="0">ay</tspan></text><path class="cls-3" d="M261.87,299.38c-21.54,0-42.36,17.46-46.51,39s9.95,39,31.49,39,42.36-17.46,46.51-39S283.41,299.38,261.87,299.38Zm-11.4,59.2c-11.16,0-18.46-9.05-16.31-20.2s12.93-20.2,24.09-20.2,18.45,9.05,16.3,20.2S261.62,358.58,250.47,358.58Z" transform="translate(-187.16 -218.98)"/><polygon class="cls-4" points="20.2 158.66 0 158.66 21.33 47.93 41.52 47.93 20.2 158.66"/><path class="cls-3" d="M267.85,297.9c21.54,0,42.36-17.46,46.51-39s-9.95-39-31.49-39-42.36,17.46-46.51,39S246.31,297.9,267.85,297.9Zm11.4-59.2c11.15,0,18.45,9.05,16.3,20.2s-12.93,20.2-24.08,20.2-18.46-9.05-16.31-20.2S268.09,238.7,279.25,238.7Z" transform="translate(-187.16 -218.98)"/><polygon class="cls-4" points="135.19 0.66 155.39 0.66 134.06 111.39 113.86 111.39 135.19 0.66"/></svg>